<?xml version="1.0" encoding="UTF-8" standalone="no"?>
<svg
   viewBox="0 0 16 16"
   version="1.1"
   id="svg4"
   sodipodi:docname="icon-linkedin-new.svg"
   inkscape:version="1.3.2 (091e20ef0f, 2023-11-25)"
   xmlns:inkscape="http://www.inkscape.org/namespaces/inkscape"
   xmlns:sodipodi="http://sodipodi.sourceforge.net/DTD/sodipodi-0.dtd"
   xmlns="http://www.w3.org/2000/svg"
   xmlns:svg="http://www.w3.org/2000/svg"
   xmlns:rdf="http://www.w3.org/1999/02/22-rdf-syntax-ns#"
   xmlns:cc="http://creativecommons.org/ns#"
   xmlns:dc="http://purl.org/dc/elements/1.1/">
  <metadata
     id="metadata10">
    <rdf:RDF>
      <cc:Work
         rdf:about="">
        <dc:format>image/svg+xml</dc:format>
        <dc:type
           rdf:resource="http://purl.org/dc/dcmitype/StillImage" />
      </cc:Work>
    </rdf:RDF>
  </metadata>
  <defs
     id="defs8" />
  <sodipodi:namedview
     pagecolor="#ffffff"
     bordercolor="#666666"
     borderopacity="1"
     objecttolerance="10"
     gridtolerance="10"
     guidetolerance="10"
     inkscape:pageopacity="0"
     inkscape:pageshadow="2"
     inkscape:window-width="2560"
     inkscape:window-height="1413"
     id="namedview6"
     showgrid="false"
     inkscape:zoom="14.75"
     inkscape:cx="-5.0508475"
     inkscape:cy="16.542373"
     inkscape:window-x="0"
     inkscape:window-y="0"
     inkscape:window-maximized="1"
     inkscape:current-layer="svg4"
     inkscape:showpageshadow="2"
     inkscape:pagecheckerboard="0"
     inkscape:deskcolor="#d1d1d1" />
  <path
     id="rect1"
     style="fill:#008000"
     d="M 3.3339844 0 C 1.4873231 0 -1.1842367e-15 1.4873231 0 3.3339844 L 0 12.666016 C 0 14.512677 1.4873231 16 3.3339844 16 L 12.666016 16 C 14.512677 16 16 14.512677 16 12.666016 L 16 3.3339844 C 16 1.4873231 14.512677 -1.1842367e-15 12.666016 0 L 3.3339844 0 z M 4.3476562 2.1328125 A 1.1801583 1.1801583 0 0 1 5.5273438 3.3125 A 1.1801583 1.1801583 0 0 1 4.3476562 4.4921875 A 1.1801583 1.1801583 0 0 1 3.1660156 3.3125 A 1.1801583 1.1801583 0 0 1 4.3476562 2.1328125 z M 10.802734 5.3320312 C 12.127514 5.2925147 13.504233 6.1793268 13.333984 8.6347656 L 13.333984 12.666016 L 11.333984 12.666016 L 11.333984 8.9316406 C 11.394564 6.8481558 8.7405404 6.6699741 8.6660156 8.9316406 L 8.6660156 12.666016 L 6.6660156 12.666016 L 6.6660156 5.3339844 L 8.6660156 5.3339844 L 8.6660156 6.5097656 C 9.0135045 5.8199463 9.896306 5.3590689 10.802734 5.3320312 z M 3.3339844 5.3339844 L 5.3339844 5.3339844 L 5.3339844 12.666016 L 3.3339844 12.666016 L 3.3339844 5.3339844 z " />
</svg>
