<?xml version="1.0" encoding="UTF-8" standalone="no"?>
<!-- Generator: Adobe Illustrator 17.0.0, SVG Export Plug-In . SVG Version: 6.00 Build 0)  -->

<svg
   version="1.1"
   x="0px"
   y="0px"
   width="231.42799"
   height="231.42799"
   viewBox="0 0 231.428 231.428"
   enable-background="new 0 0 1094 800"
   xml:space="preserve"
   id="svg96"
   sodipodi:docname="icon-reddit.svg"
   inkscape:version="1.3.2 (091e20ef0f, 2023-11-25)"
   xmlns:inkscape="http://www.inkscape.org/namespaces/inkscape"
   xmlns:sodipodi="http://sodipodi.sourceforge.net/DTD/sodipodi-0.dtd"
   xmlns="http://www.w3.org/2000/svg"
   xmlns:svg="http://www.w3.org/2000/svg"
   xmlns:rdf="http://www.w3.org/1999/02/22-rdf-syntax-ns#"
   xmlns:cc="http://creativecommons.org/ns#"
   xmlns:dc="http://purl.org/dc/elements/1.1/"><metadata
   id="metadata102"><rdf:RDF><cc:Work
       rdf:about=""><dc:format>image/svg+xml</dc:format><dc:type
         rdf:resource="http://purl.org/dc/dcmitype/StillImage" /></cc:Work></rdf:RDF></metadata><defs
   id="defs100">
	

	
	

	
	

	
	

	
	

	
	

	
	

	
	

	
	

	
	

	
	

	
	

</defs><sodipodi:namedview
   pagecolor="#ffffff"
   bordercolor="#666666"
   borderopacity="1"
   objecttolerance="10"
   gridtolerance="10"
   guidetolerance="10"
   inkscape:pageopacity="0"
   inkscape:pageshadow="2"
   inkscape:window-width="2560"
   inkscape:window-height="1413"
   id="namedview98"
   showgrid="false"
   inkscape:zoom="2.5490702"
   inkscape:cx="-7.2575483"
   inkscape:cy="128.28207"
   inkscape:window-x="0"
   inkscape:window-y="0"
   inkscape:window-maximized="1"
   inkscape:current-layer="svg96"
   fit-margin-top="50"
   fit-margin-left="50"
   fit-margin-right="50"
   fit-margin-bottom="50"
   inkscape:showpageshadow="2"
   inkscape:pagecheckerboard="0"
   inkscape:deskcolor="#d1d1d1" />













<path
   id="circle7-4-8"
   style="fill:#008200;fill-opacity:1"
   d="M 115.71484 0 A 115.714 115.714 0 0 0 0 115.71484 A 115.714 115.714 0 0 0 115.71484 231.42773 A 115.714 115.714 0 0 0 231.42773 115.71484 A 115.714 115.714 0 0 0 115.71484 0 z M 125.67188 57.183594 L 159.72461 64.462891 A 11.878261 11.878261 0 0 1 160.19922 63.5 L 160.21094 63.484375 A 11.878261 11.878261 0 0 1 176.40039 59.019531 A 11.878261 11.878261 0 0 1 180.87305 75.208984 A 11.878261 11.878261 0 0 1 164.6875 79.6875 A 11.878261 11.878261 0 0 1 158.77148 67.791016 C 158.6412 67.912026 158.49459 67.988281 158.32812 67.988281 C 157.15384 67.988281 128.25977 61.880859 128.25977 61.880859 L 118 95.228516 A 67.666382 43.345462 0 0 1 118.83008 95.244141 A 67.666382 43.345462 0 0 1 149.13086 100.8457 A 67.666382 43.345462 0 0 1 163.80859 108.09961 A 16.346774 14.945621 0 0 1 182.94922 106.08594 A 16.346774 14.945621 0 0 1 189.10156 126.45508 A 16.346774 14.945621 0 0 1 182.65234 132.21484 A 67.666382 43.345462 0 0 1 174.60156 159.92188 A 67.666382 43.345462 0 0 1 82.388672 176.25977 A 67.666382 43.345462 0 0 1 48.873047 131.98828 A 16.346774 14.945621 0 0 1 42.880859 111.72266 L 42.900391 111.70117 A 16.346774 14.945621 0 0 1 65.181641 106.08398 A 16.346774 14.945621 0 0 1 67.966797 107.91406 A 67.666382 43.345462 0 0 1 114.20508 95.263672 L 113.69531 95.238281 L 125.67188 57.183594 z M 90.068359 122.21875 L 90.064453 122.22266 A 11.070645 11.531921 0 0 0 80.521484 128.05859 L 80.521484 128.07422 A 11.070645 11.531921 0 0 0 84.699219 143.78906 A 11.070645 11.531921 0 0 0 99.787109 139.43945 A 11.070645 11.531921 0 0 0 95.619141 123.72461 A 11.070645 11.531921 0 0 0 90.662109 122.23242 L 90.658203 122.23047 A 11.070645 11.531921 0 0 0 90.068359 122.21875 z M 143.125 122.23438 L 143.12109 122.23633 A 11.070645 11.531921 0 0 0 133.57812 128.07227 L 133.57812 128.08789 A 11.070645 11.531921 0 0 0 137.75781 143.80078 A 11.070645 11.531921 0 0 0 152.84375 139.45117 A 11.070645 11.531921 0 0 0 148.67578 123.73438 A 11.070645 11.531921 0 0 0 143.71875 122.24609 L 143.71484 122.24609 A 11.070645 11.531921 0 0 0 143.125 122.23438 z M 143.76367 159.00781 C 143.38245 158.98201 143.0255 159.07728 142.74219 159.33008 C 126.44326 173.88356 101.79134 169.44563 91.310547 160.02344 C 88.59351 157.58084 86.097753 162.56174 87.388672 163.71094 C 104.16524 178.64472 137.33367 175.42912 146.43359 163.01953 C 147.55239 161.49373 145.41536 159.11941 143.76367 159.00781 z " /></svg>
