<?xml version="1.0" encoding="UTF-8" standalone="no"?>
<!-- Generator: Adobe Illustrator 17.0.0, SVG Export Plug-In . SVG Version: 6.00 Build 0)  -->

<svg
   version="1.1"
   x="0px"
   y="0px"
   width="231.42799"
   height="231.42799"
   viewBox="0 0 231.428 231.428"
   enable-background="new 0 0 1094 800"
   xml:space="preserve"
   id="svg96"
   sodipodi:docname="reddit.svg"
   inkscape:version="1.2.1 (9c6d41e410, 2022-07-14, custom)"
   xmlns:inkscape="http://www.inkscape.org/namespaces/inkscape"
   xmlns:sodipodi="http://sodipodi.sourceforge.net/DTD/sodipodi-0.dtd"
   xmlns="http://www.w3.org/2000/svg"
   xmlns:svg="http://www.w3.org/2000/svg"
   xmlns:rdf="http://www.w3.org/1999/02/22-rdf-syntax-ns#"
   xmlns:cc="http://creativecommons.org/ns#"
   xmlns:dc="http://purl.org/dc/elements/1.1/"><metadata
   id="metadata102"><rdf:RDF><cc:Work
       rdf:about=""><dc:format>image/svg+xml</dc:format><dc:type
         rdf:resource="http://purl.org/dc/dcmitype/StillImage" /></cc:Work></rdf:RDF></metadata><defs
   id="defs100">
	

	
	

	
	

	
	

	
	

	
	

	
	

	
	

	
	

	
	

	
	

	
	

</defs><sodipodi:namedview
   pagecolor="#ffffff"
   bordercolor="#666666"
   borderopacity="1"
   objecttolerance="10"
   gridtolerance="10"
   guidetolerance="10"
   inkscape:pageopacity="0"
   inkscape:pageshadow="2"
   inkscape:window-width="1920"
   inkscape:window-height="1080"
   id="namedview98"
   showgrid="false"
   inkscape:zoom="2.5490702"
   inkscape:cx="-7.2575483"
   inkscape:cy="128.08592"
   inkscape:window-x="0"
   inkscape:window-y="0"
   inkscape:window-maximized="1"
   inkscape:current-layer="svg96"
   fit-margin-top="50"
   fit-margin-left="50"
   fit-margin-right="50"
   fit-margin-bottom="50"
   inkscape:showpageshadow="2"
   inkscape:pagecheckerboard="0"
   inkscape:deskcolor="#d1d1d1" />













<circle
   style="fill:#008200;fill-opacity:1"
   id="circle7-4-8"
   r="115.714"
   cy="115.714"
   cx="115.714" /><path
   inkscape:connector-curvature="0"
   d="m 125.67157,57.182665 -11.97717,38.05487 0.51129,0.0259 a 67.666382,43.345462 0 0 0 -46.239449,12.649725 16.346774,14.945621 0 0 0 -2.78487,-1.83009 16.346774,14.945621 0 0 0 -22.28075,5.61812 l -0.0207,0.0207 a 16.346774,14.945621 0 0 0 5.99294,20.26543 67.666382,43.345462 0 0 0 33.51496,44.27273 67.666382,43.345462 0 0 0 92.214439,-16.3385 67.666382,43.345462 0 0 0 8.05014,-27.70712 16.346774,14.945621 0 0 0 6.44943,-5.7593 16.346774,14.945621 0 0 0 -6.15176,-20.3691 16.346774,14.945621 0 0 0 -19.14098,2.01316 67.666382,43.345462 0 0 0 -14.67813,-7.25423 67.666382,43.345462 0 0 0 -30.30014,-5.600585 67.666382,43.345462 0 0 0 -0.83127,-0.0155 l 10.25949,-33.34732 c 0,0 28.89434,6.10766 30.06863,6.10766 0.16647,0 0.31277,-0.077 0.44305,-0.19801 a 11.878261,11.878261 0 0 0 5.91595,11.8956 11.878261,11.878261 0 0 0 16.18641,-4.47816 11.878261,11.878261 0 0 0 -4.47175,-16.18865 11.878261,11.878261 0 0 0 -16.19074,4.46496 l -0.0109,0.016 a 11.878261,11.878261 0 0 0 -0.47557,0.96137 z M 90.068631,122.21922 a 11.070645,11.531921 0 0 1 0.5886,0.0109 l 0.005,0.003 a 11.070645,11.531921 0 0 1 4.95668,1.49053 11.070645,11.531921 0 0 1 4.16728,15.71677 11.070645,11.531921 0 0 1 -15.08608,4.34813 11.070645,11.531921 0 0 1 -4.17836,-15.71454 v -0.0155 a 11.070645,11.531921 0 0 1 9.54299,-5.83645 z m 53.057149,0.0155 a 11.070645,11.531921 0 0 1 0.5887,0.0109 l 0.005,10e-4 a 11.070645,11.531921 0 0 1 4.95659,1.48841 11.070645,11.531921 0 0 1 4.16728,15.71671 11.070645,11.531921 0 0 1 -15.08593,4.34809 11.070645,11.531921 0 0 1 -4.1784,-15.71232 v -0.0154 a 11.070645,11.531921 0 0 1 9.54288,-5.8365 z m 0.63723,36.77383 c 1.65169,0.1116 3.78896,2.4849 2.67016,4.0107 -9.09993,12.4096 -42.26698,15.6262 -59.043569,0.6924 -1.29092,-1.1492 1.20339,-6.1315 3.92043,-3.6889 10.480799,9.4222 35.133099,13.8612 51.432039,-0.6923 0.28331,-0.2528 0.63972,-0.3479 1.02094,-0.3221 z"
   style="fill:#ffffff;fill-opacity:1;fill-rule:nonzero;stroke:none;stroke-width:3.44995;stroke-miterlimit:4;stroke-dasharray:none;stroke-opacity:0.526787"
   id="rect1698" /></svg>
